<?xml version="1.0" standalone="no"?>
<!DOCTYPE svg PUBLIC "-//W3C//DTD SVG 20010904//EN"
 "http://www.w3.org/TR/2001/REC-SVG-20010904/DTD/svg10.dtd">
<svg version="1.0" xmlns="http://www.w3.org/2000/svg"
 width="150.000000pt" height="28.000000pt" viewBox="0 0 150.000000 28.000000"
 preserveAspectRatio="xMidYMid meet">

<g transform="translate(0.000000,28.000000) scale(0.100000,-0.100000)"
fill="#000000" stroke="none">
<path d="M0 140 l0 -140 748 2 747 3 0 135 0 135 -747 3 -748 2 0 -140z m1480
0 l0 -125 -732 3 -733 2 -3 112 c-1 61 -1 117 1 122 3 8 229 11 736 11 l731 0
0 -125z"/>
<path d="M440 155 c0 -43 4 -75 10 -75 6 0 10 32 10 75 0 43 -4 75 -10 75 -6
0 -10 -32 -10 -75z"/>
<path d="M490 155 c0 -43 4 -75 10 -75 6 0 10 32 10 75 0 43 -4 75 -10 75 -6
0 -10 -32 -10 -75z"/>
<path d="M190 200 c-26 -26 -26 -81 -1 -104 13 -12 32 -16 58 -14 35 3 38 6
41 36 3 30 2 32 -30 31 -24 -1 -27 -3 -10 -6 17 -3 22 -10 20 -26 -7 -50 -78
-19 -78 33 0 39 31 64 71 55 22 -5 29 -4 25 4 -12 19 -74 13 -96 -9z"/>
<path d="M720 150 c0 -40 4 -70 10 -70 6 0 10 14 10 30 0 20 5 30 15 30 8 0
21 -14 30 -30 22 -42 38 -38 20 6 -11 27 -12 39 -3 54 17 26 -6 50 -48 50
l-34 0 0 -70z m59 51 c19 -12 6 -41 -19 -41 -15 0 -20 7 -20 25 0 26 14 31 39
16z"/>
<path d="M1262 190 c-7 -12 -8 -20 -2 -20 5 0 10 -20 10 -44 0 -46 15 -62 41
-45 11 7 11 9 -2 9 -12 0 -18 11 -21 40 -3 34 -1 40 17 41 17 1 17 2 3 6 -10
2 -18 11 -18 19 0 20 -13 17 -28 -6z"/>
<path d="M334 175 c-18 -14 -17 -14 14 -9 25 5 32 3 32 -9 0 -10 -11 -17 -27
-19 -20 -2 -29 -9 -31 -25 -4 -25 27 -46 48 -33 8 5 18 6 22 4 4 -3 8 15 8 40
0 35 -5 48 -19 56 -25 13 -23 13 -47 -5z m46 -60 c0 -16 -27 -32 -37 -22 -3 4
-3 13 0 22 8 20 37 20 37 0z"/>
<path d="M562 174 c-48 -33 -8 -111 49 -97 30 8 22 18 -13 18 -23 0 -34 5 -36
18 -3 14 4 17 32 17 29 0 36 4 36 20 0 10 -9 24 -19 30 -25 13 -22 13 -49 -6z
m52 -19 c4 -11 -2 -15 -24 -15 -29 0 -38 9 -23 23 12 12 41 7 47 -8z"/>
<path d="M862 174 c-48 -33 -8 -111 49 -97 30 8 22 18 -13 18 -23 0 -34 5 -36
18 -3 14 4 17 32 17 29 0 36 4 36 20 0 10 -9 24 -19 30 -25 13 -22 13 -49 -6z
m52 -19 c4 -11 -2 -15 -24 -15 -29 0 -38 9 -23 23 12 12 41 7 47 -8z"/>
<path d="M978 182 c-26 -5 -22 -37 7 -56 31 -21 23 -40 -14 -32 -24 6 -25 5
-8 -8 24 -19 62 -6 62 20 0 11 -10 23 -22 29 -13 5 -23 15 -23 22 0 6 10 13
23 15 15 2 18 5 7 9 -8 3 -23 4 -32 1z"/>
<path d="M1072 174 c-52 -36 1 -124 53 -90 21 14 31 62 18 82 -14 21 -48 24
-71 8z m53 -44 c0 -31 -3 -35 -25 -35 -19 0 -26 6 -28 23 -5 36 5 54 30 50 19
-2 23 -9 23 -38z"/>
<path d="M1215 181 c-3 -6 -12 -8 -20 -4 -12 4 -15 -5 -15 -46 0 -28 5 -51 10
-51 6 0 10 15 10 34 0 24 7 39 21 49 12 9 16 18 10 21 -5 4 -12 2 -16 -3z"/>
</g>
</svg>
